<svg xmlns="http://www.w3.org/2000/svg" width="24" height="24" viewBox="0 0 24 24" fill="none">
    <path
        d="M19.5003 12.5717L12.0003 19.9997L4.5003 12.5717C4.00561 12.0903 3.61594 11.5117 3.35585 10.8723C3.09575 10.2329 2.97086 9.54664 2.98904 8.85662C3.00721 8.1666 3.16806 7.48782 3.46146 6.86303C3.75485 6.23823 4.17444 5.68094 4.69379 5.22627C5.21314 4.77159 5.82101 4.42938 6.47911 4.22117C7.13722 4.01296 7.83131 3.94327 8.51767 4.01649C9.20403 4.08971 9.8678 4.30425 10.4672 4.64659C11.0666 4.98894 11.5885 5.45169 12.0003 6.00569C12.4138 5.45571 12.9364 4.99701 13.5354 4.65829C14.1344 4.31958 14.7968 4.10814 15.4812 4.03721C16.1657 3.96628 16.8574 4.03739 17.5131 4.24608C18.1688 4.45477 18.7743 4.79656 19.2919 5.25005C19.8094 5.70354 20.2277 6.25897 20.5207 6.88158C20.8137 7.50419 20.975 8.18057 20.9946 8.8684C21.0142 9.55622 20.8916 10.2407 20.6344 10.8789C20.3773 11.5172 19.9912 12.0955 19.5003 12.5777"
        stroke="#FFF" stroke-width="1.5" stroke-linecap="round" stroke-linejoin="round" />
    <path
        d="M11.9998 6L8.70685 9.293C8.51938 9.48053 8.41406 9.73484 8.41406 10C8.41406 10.2652 8.51938 10.5195 8.70685 10.707L9.24985 11.25C9.93985 11.94 11.0598 11.94 11.7498 11.25L12.7498 10.25C13.3466 9.65327 14.1559 9.31803 14.9998 9.31803C15.8438 9.31803 16.6531 9.65327 17.2498 10.25L19.4998 12.5"
        stroke="#FFF" stroke-width="1.5" stroke-linecap="round" stroke-linejoin="round" />
    <path d="M12.5 15.5L14.5 17.5" stroke="#FFF" stroke-width="1.5" stroke-linecap="round" stroke-linejoin="round" />
    <path d="M15 13L17 15" stroke="#FFF" stroke-width="1.5" stroke-linecap="round" stroke-linejoin="round" />
</svg>