<svg xmlns="http://www.w3.org/2000/svg" width="10" height="15" viewBox="0 0 10 15" fill="none">
    <path fillRule="evenodd" clipRule="evenodd"
        d="M6.43366 2.28866C6.19185 2.17099 5.67295 2.05433 5.01016 2.0624C4.3077 2.07206 3.61377 2.22758 3.05709 2.6864M6.43366 2.28866C7.05836 2.59474 7.96875 3.19652 7.96875 4.40622C7.96875 5.73655 7.19866 6.33362 5.87179 7.24608C5.15209 7.74099 4.64606 8.26846 4.32708 8.86145C4.00527 9.45968 3.90626 10.0644 3.90626 10.6562C3.90626 11.0877 4.25604 11.4375 4.68751 11.4375C5.11898 11.4375 5.46876 11.0877 5.46876 10.6562C5.46876 10.2465 5.53537 9.9135 5.70311 9.60167C5.87368 9.28459 6.18113 8.92965 6.75713 8.53354L6.78716 8.5129C8.04542 7.64777 9.53125 6.62617 9.53125 4.40622C9.53125 2.22576 7.83219 1.23378 7.1202 0.885068L7.11892 0.884443C6.57852 0.620991 5.79013 0.490206 4.99042 0.500026L4.98934 0.50004C4.08965 0.512323 2.99551 0.712307 2.06327 1.4807C1.31309 2.09907 0.914043 2.80131 0.704172 3.35604C0.599648 3.63232 0.541784 3.87238 0.509704 4.04913C0.493631 4.13769 0.48392 4.21096 0.478063 4.2657C0.475133 4.29309 0.473159 4.31591 0.471837 4.33377C0.471175 4.3427 0.470676 4.3504 0.4703 4.35681C0.470112 4.36002 0.469955 4.3629 0.469825 4.36546L0.469648 4.36906L0.469573 4.37067C0.469482 4.37272 0.469507 4.37216 0.469507 4.37216C0.450697 4.80322 0.784893 5.16791 1.21595 5.18672C1.64426 5.20541 2.00704 4.8756 2.03012 4.44853C2.03029 4.44631 2.03076 4.44069 2.03169 4.43192C2.03381 4.41213 2.03829 4.37662 2.04708 4.32817C2.06474 4.23092 2.0993 4.08412 2.16558 3.90893C2.29731 3.56074 2.55338 3.10162 3.05709 2.6864"
        fill="white" />
    <path
        d="M4.68751 14.8746C5.37786 14.8746 5.93751 14.3149 5.93751 13.6246C5.93751 12.9342 5.37786 12.3746 4.68751 12.3746C3.99715 12.3746 3.43751 12.9342 3.43751 13.6246C3.43751 14.3149 3.99715 14.8746 4.68751 14.8746Z"
        fill="white" />
</svg>